<mxfile host="app.diagrams.net" modified="2024-02-07T12:26:59.589Z" agent="Mozilla/5.0 (Windows NT 10.0; Win64; x64; rv:122.0) Gecko/20100101 Firefox/122.0" version="23.1.1" etag="PaWc6HQPWlQXea_upGRb" type="github">
  <diagram name="Page-1" id="ohkCHzYgHGOE4AlY5Z-F">
    <mxGraphModel>
      <root>
        <mxCell id="0" />
        <mxCell id="1" parent="0" />
      </root>
    </mxGraphModel>
  </diagram>
</mxfile>
